<mxfile host="app.diagrams.net" agent="Mozilla/5.0 (Windows NT 10.0; Win64; x64) AppleWebKit/537.36 (KHTML, like Gecko) Chrome/131.0.0.0 Safari/537.36" version="26.0.3">
  <diagram name="Page-1" id="lFAcO-Z31bVgtg6pmbd0">
    <mxGraphModel dx="2759" dy="1075" grid="1" gridSize="10" guides="1" tooltips="1" connect="1" arrows="1" fold="1" page="1" pageScale="1" pageWidth="850" pageHeight="1100" math="0" shadow="0">
      <root>
        <mxCell id="0" />
        <mxCell id="1" parent="0" />
        <mxCell id="8YIkC-qQaHyYvdBdioPT-1" style="edgeStyle=none;curved=1;rounded=0;orthogonalLoop=1;jettySize=auto;html=1;fontSize=12;startSize=8;endSize=8;" edge="1" parent="1" source="1AhZNQix8E-ZL5URU39M-1" target="8YIkC-qQaHyYvdBdioPT-2">
          <mxGeometry relative="1" as="geometry">
            <mxPoint x="590" y="120" as="targetPoint" />
          </mxGeometry>
        </mxCell>
        <mxCell id="8YIkC-qQaHyYvdBdioPT-3" style="edgeStyle=none;curved=1;rounded=0;orthogonalLoop=1;jettySize=auto;html=1;fontSize=12;startSize=8;endSize=8;entryX=1;entryY=0.5;entryDx=0;entryDy=0;" edge="1" parent="1" source="1AhZNQix8E-ZL5URU39M-1" target="8YIkC-qQaHyYvdBdioPT-5">
          <mxGeometry relative="1" as="geometry">
            <mxPoint x="580" y="210" as="targetPoint" />
          </mxGeometry>
        </mxCell>
        <mxCell id="8YIkC-qQaHyYvdBdioPT-13" style="edgeStyle=none;curved=1;rounded=0;orthogonalLoop=1;jettySize=auto;html=1;fontSize=12;startSize=8;endSize=8;" edge="1" parent="1" source="1AhZNQix8E-ZL5URU39M-1" target="8YIkC-qQaHyYvdBdioPT-14">
          <mxGeometry relative="1" as="geometry">
            <mxPoint x="550" y="330" as="targetPoint" />
          </mxGeometry>
        </mxCell>
        <mxCell id="1AhZNQix8E-ZL5URU39M-1" value="&lt;font style=&quot;font-size: 16px;&quot;&gt;Khách hàng&lt;/font&gt;" style="shape=umlActor;verticalLabelPosition=bottom;verticalAlign=top;html=1;outlineConnect=0;" parent="1" vertex="1">
          <mxGeometry x="870" y="200" width="30" height="60" as="geometry" />
        </mxCell>
        <mxCell id="8YIkC-qQaHyYvdBdioPT-2" value="&lt;div style=&quot;&quot;&gt;&lt;span style=&quot;font-size: 16px; background-color: transparent; color: light-dark(rgb(0, 0, 0), rgb(255, 255, 255));&quot;&gt;Tạo 1 giỏ hàng với sản phẩm&amp;nbsp;&lt;/span&gt;&lt;/div&gt;&lt;div style=&quot;&quot;&gt;&lt;font style=&quot;font-size: 16px;&quot;&gt;cần mua&lt;/font&gt;&lt;/div&gt;" style="ellipse;whiteSpace=wrap;html=1;align=center;" vertex="1" parent="1">
          <mxGeometry x="460" y="20" width="180" height="100" as="geometry" />
        </mxCell>
        <mxCell id="8YIkC-qQaHyYvdBdioPT-77" style="edgeStyle=none;curved=1;rounded=0;orthogonalLoop=1;jettySize=auto;html=1;fontSize=12;startSize=8;endSize=8;" edge="1" parent="1" source="8YIkC-qQaHyYvdBdioPT-5" target="8YIkC-qQaHyYvdBdioPT-78">
          <mxGeometry relative="1" as="geometry">
            <mxPoint x="370" y="150" as="targetPoint" />
          </mxGeometry>
        </mxCell>
        <mxCell id="8YIkC-qQaHyYvdBdioPT-5" value="&lt;span style=&quot;font-size: 16px;&quot;&gt;Tạo đơn đặt hàng&lt;/span&gt;" style="ellipse;whiteSpace=wrap;html=1;" vertex="1" parent="1">
          <mxGeometry x="490" y="150" width="140" height="70" as="geometry" />
        </mxCell>
        <mxCell id="8YIkC-qQaHyYvdBdioPT-14" value="&lt;font style=&quot;font-size: 16px;&quot;&gt;Đăng nhập/Đăng ký&lt;/font&gt;" style="ellipse;whiteSpace=wrap;html=1;" vertex="1" parent="1">
          <mxGeometry x="372.5" y="240" width="120" height="80" as="geometry" />
        </mxCell>
        <mxCell id="8YIkC-qQaHyYvdBdioPT-16" style="edgeStyle=none;curved=1;rounded=0;orthogonalLoop=1;jettySize=auto;html=1;entryX=0;entryY=0.5;entryDx=0;entryDy=0;fontSize=12;startSize=8;endSize=8;" edge="1" parent="1" source="8YIkC-qQaHyYvdBdioPT-15" target="8YIkC-qQaHyYvdBdioPT-14">
          <mxGeometry relative="1" as="geometry" />
        </mxCell>
        <mxCell id="8YIkC-qQaHyYvdBdioPT-17" style="edgeStyle=none;curved=1;rounded=0;orthogonalLoop=1;jettySize=auto;html=1;fontSize=12;startSize=8;endSize=8;" edge="1" parent="1" source="8YIkC-qQaHyYvdBdioPT-15" target="8YIkC-qQaHyYvdBdioPT-18">
          <mxGeometry relative="1" as="geometry">
            <mxPoint x="240" y="440" as="targetPoint" />
          </mxGeometry>
        </mxCell>
        <mxCell id="8YIkC-qQaHyYvdBdioPT-21" style="edgeStyle=none;curved=1;rounded=0;orthogonalLoop=1;jettySize=auto;html=1;fontSize=12;startSize=8;endSize=8;" edge="1" parent="1" source="8YIkC-qQaHyYvdBdioPT-15" target="8YIkC-qQaHyYvdBdioPT-22">
          <mxGeometry relative="1" as="geometry">
            <mxPoint x="250" y="570" as="targetPoint" />
          </mxGeometry>
        </mxCell>
        <mxCell id="8YIkC-qQaHyYvdBdioPT-23" style="edgeStyle=none;curved=1;rounded=0;orthogonalLoop=1;jettySize=auto;html=1;fontSize=12;startSize=8;endSize=8;" edge="1" parent="1" source="8YIkC-qQaHyYvdBdioPT-15" target="8YIkC-qQaHyYvdBdioPT-28">
          <mxGeometry relative="1" as="geometry">
            <mxPoint x="290" y="730" as="targetPoint" />
          </mxGeometry>
        </mxCell>
        <mxCell id="8YIkC-qQaHyYvdBdioPT-15" value="&lt;font style=&quot;font-size: 16px;&quot;&gt;Quản lý chuỗi&lt;/font&gt;" style="shape=umlActor;verticalLabelPosition=bottom;verticalAlign=top;html=1;outlineConnect=0;" vertex="1" parent="1">
          <mxGeometry x="-70" y="310" width="30" height="60" as="geometry" />
        </mxCell>
        <mxCell id="8YIkC-qQaHyYvdBdioPT-18" value="&lt;font style=&quot;font-size: 16px;&quot;&gt;Xác nhận các đơn&lt;/font&gt;&lt;div&gt;&lt;font style=&quot;font-size: 16px;&quot;&gt;đặt hàng của khách hàng&lt;/font&gt;&lt;/div&gt;" style="ellipse;whiteSpace=wrap;html=1;" vertex="1" parent="1">
          <mxGeometry x="330" y="380" width="170" height="80" as="geometry" />
        </mxCell>
        <mxCell id="8YIkC-qQaHyYvdBdioPT-22" value="&lt;font style=&quot;font-size: 15px;&quot;&gt;Lên chiến lược&lt;/font&gt;&lt;div&gt;&lt;font style=&quot;font-size: 15px;&quot;&gt;dựa trên báo cao và thống kê&lt;/font&gt;&lt;/div&gt;" style="ellipse;whiteSpace=wrap;html=1;" vertex="1" parent="1">
          <mxGeometry x="330" y="490" width="170" height="80" as="geometry" />
        </mxCell>
        <mxCell id="8YIkC-qQaHyYvdBdioPT-28" value="&lt;font style=&quot;font-size: 16px;&quot;&gt;Nhắn tin&lt;/font&gt;" style="ellipse;whiteSpace=wrap;html=1;" vertex="1" parent="1">
          <mxGeometry x="355" y="620" width="120" height="60" as="geometry" />
        </mxCell>
        <mxCell id="8YIkC-qQaHyYvdBdioPT-33" style="edgeStyle=none;curved=1;rounded=0;orthogonalLoop=1;jettySize=auto;html=1;fontSize=12;startSize=8;endSize=8;" edge="1" parent="1" source="8YIkC-qQaHyYvdBdioPT-30" target="8YIkC-qQaHyYvdBdioPT-28">
          <mxGeometry relative="1" as="geometry" />
        </mxCell>
        <mxCell id="8YIkC-qQaHyYvdBdioPT-34" style="edgeStyle=none;curved=1;rounded=0;orthogonalLoop=1;jettySize=auto;html=1;fontSize=12;startSize=8;endSize=8;" edge="1" parent="1" source="8YIkC-qQaHyYvdBdioPT-30" target="8YIkC-qQaHyYvdBdioPT-35">
          <mxGeometry relative="1" as="geometry">
            <mxPoint x="470" y="760" as="targetPoint" />
          </mxGeometry>
        </mxCell>
        <mxCell id="8YIkC-qQaHyYvdBdioPT-48" style="edgeStyle=none;curved=1;rounded=0;orthogonalLoop=1;jettySize=auto;html=1;fontSize=12;startSize=8;endSize=8;" edge="1" parent="1" source="8YIkC-qQaHyYvdBdioPT-30" target="8YIkC-qQaHyYvdBdioPT-49">
          <mxGeometry relative="1" as="geometry">
            <mxPoint x="640" y="930" as="targetPoint" />
          </mxGeometry>
        </mxCell>
        <mxCell id="8YIkC-qQaHyYvdBdioPT-50" style="edgeStyle=none;curved=1;rounded=0;orthogonalLoop=1;jettySize=auto;html=1;fontSize=12;startSize=8;endSize=8;" edge="1" parent="1" source="8YIkC-qQaHyYvdBdioPT-30" target="8YIkC-qQaHyYvdBdioPT-51">
          <mxGeometry relative="1" as="geometry">
            <mxPoint x="620" y="1020" as="targetPoint" />
          </mxGeometry>
        </mxCell>
        <mxCell id="8YIkC-qQaHyYvdBdioPT-30" value="&lt;font style=&quot;font-size: 16px;&quot;&gt;Quản lý kho&lt;/font&gt;" style="shape=umlActor;verticalLabelPosition=bottom;verticalAlign=top;html=1;outlineConnect=0;" vertex="1" parent="1">
          <mxGeometry x="870" y="800" width="30" height="60" as="geometry" />
        </mxCell>
        <mxCell id="8YIkC-qQaHyYvdBdioPT-36" style="edgeStyle=none;curved=1;rounded=0;orthogonalLoop=1;jettySize=auto;html=1;fontSize=12;startSize=8;endSize=8;" edge="1" parent="1" source="8YIkC-qQaHyYvdBdioPT-35" target="8YIkC-qQaHyYvdBdioPT-37">
          <mxGeometry relative="1" as="geometry">
            <mxPoint x="452.5" y="660" as="targetPoint" />
          </mxGeometry>
        </mxCell>
        <mxCell id="8YIkC-qQaHyYvdBdioPT-38" style="edgeStyle=none;curved=1;rounded=0;orthogonalLoop=1;jettySize=auto;html=1;fontSize=12;startSize=8;endSize=8;" edge="1" parent="1" source="8YIkC-qQaHyYvdBdioPT-35" target="8YIkC-qQaHyYvdBdioPT-39">
          <mxGeometry relative="1" as="geometry">
            <mxPoint x="452.5" y="770" as="targetPoint" />
          </mxGeometry>
        </mxCell>
        <mxCell id="8YIkC-qQaHyYvdBdioPT-40" style="edgeStyle=none;curved=1;rounded=0;orthogonalLoop=1;jettySize=auto;html=1;fontSize=12;startSize=8;endSize=8;" edge="1" parent="1" source="8YIkC-qQaHyYvdBdioPT-35" target="8YIkC-qQaHyYvdBdioPT-41">
          <mxGeometry relative="1" as="geometry">
            <mxPoint x="452.5" y="840" as="targetPoint" />
          </mxGeometry>
        </mxCell>
        <mxCell id="8YIkC-qQaHyYvdBdioPT-46" style="edgeStyle=none;curved=1;rounded=0;orthogonalLoop=1;jettySize=auto;html=1;fontSize=12;startSize=8;endSize=8;" edge="1" parent="1" source="8YIkC-qQaHyYvdBdioPT-35" target="8YIkC-qQaHyYvdBdioPT-47">
          <mxGeometry relative="1" as="geometry">
            <mxPoint x="587.5" y="700" as="targetPoint" />
          </mxGeometry>
        </mxCell>
        <mxCell id="8YIkC-qQaHyYvdBdioPT-35" value="&lt;font style=&quot;font-size: 16px;&quot;&gt;Quản lý nhà kho&lt;/font&gt;" style="ellipse;whiteSpace=wrap;html=1;" vertex="1" parent="1">
          <mxGeometry x="557.5" y="870" width="120" height="80" as="geometry" />
        </mxCell>
        <mxCell id="8YIkC-qQaHyYvdBdioPT-37" value="&lt;font style=&quot;font-size: 16px;&quot;&gt;Thêm nhà kho&lt;/font&gt;" style="ellipse;whiteSpace=wrap;html=1;" vertex="1" parent="1">
          <mxGeometry x="470" y="800" width="90" height="50" as="geometry" />
        </mxCell>
        <mxCell id="8YIkC-qQaHyYvdBdioPT-39" value="&lt;font style=&quot;font-size: 16px;&quot;&gt;Sửa nhà kho&lt;/font&gt;" style="ellipse;whiteSpace=wrap;html=1;" vertex="1" parent="1">
          <mxGeometry x="415" y="880" width="95" height="60" as="geometry" />
        </mxCell>
        <mxCell id="8YIkC-qQaHyYvdBdioPT-41" value="&lt;font style=&quot;font-size: 16px;&quot;&gt;Xóa nhà kho&lt;/font&gt;" style="ellipse;whiteSpace=wrap;html=1;" vertex="1" parent="1">
          <mxGeometry x="480" y="970" width="100" height="70" as="geometry" />
        </mxCell>
        <mxCell id="8YIkC-qQaHyYvdBdioPT-47" value="&lt;font style=&quot;font-size: 16px;&quot;&gt;Thêm/sửa/xóa&amp;nbsp;&lt;/font&gt;&lt;div&gt;&lt;font style=&quot;font-size: 16px;&quot;&gt;sản phẩm vào kho&lt;/font&gt;&lt;/div&gt;" style="ellipse;whiteSpace=wrap;html=1;" vertex="1" parent="1">
          <mxGeometry x="570" y="770" width="140" height="70" as="geometry" />
        </mxCell>
        <mxCell id="8YIkC-qQaHyYvdBdioPT-49" value="&lt;font style=&quot;font-size: 16px;&quot;&gt;Xem chiến lược của quản lý chuỗi&lt;/font&gt;" style="ellipse;whiteSpace=wrap;html=1;" vertex="1" parent="1">
          <mxGeometry x="355" y="1240" width="155" height="80" as="geometry" />
        </mxCell>
        <mxCell id="8YIkC-qQaHyYvdBdioPT-51" value="&lt;font style=&quot;font-size: 16px;&quot;&gt;Đăng nhập/Đăng ký&lt;/font&gt;" style="ellipse;whiteSpace=wrap;html=1;" vertex="1" parent="1">
          <mxGeometry x="370" y="1110" width="120" height="80" as="geometry" />
        </mxCell>
        <mxCell id="8YIkC-qQaHyYvdBdioPT-57" style="edgeStyle=none;curved=1;rounded=0;orthogonalLoop=1;jettySize=auto;html=1;fontSize=12;startSize=8;endSize=8;" edge="1" parent="1" source="8YIkC-qQaHyYvdBdioPT-52" target="8YIkC-qQaHyYvdBdioPT-58">
          <mxGeometry relative="1" as="geometry">
            <mxPoint x="190.0000000000001" y="760" as="targetPoint" />
          </mxGeometry>
        </mxCell>
        <mxCell id="8YIkC-qQaHyYvdBdioPT-68" style="edgeStyle=none;curved=1;rounded=0;orthogonalLoop=1;jettySize=auto;html=1;entryX=0;entryY=0.5;entryDx=0;entryDy=0;fontSize=12;startSize=8;endSize=8;" edge="1" parent="1" source="8YIkC-qQaHyYvdBdioPT-52" target="8YIkC-qQaHyYvdBdioPT-28">
          <mxGeometry relative="1" as="geometry" />
        </mxCell>
        <mxCell id="8YIkC-qQaHyYvdBdioPT-71" style="edgeStyle=none;curved=1;rounded=0;orthogonalLoop=1;jettySize=auto;html=1;fontSize=12;startSize=8;endSize=8;" edge="1" parent="1" source="8YIkC-qQaHyYvdBdioPT-52" target="8YIkC-qQaHyYvdBdioPT-49">
          <mxGeometry relative="1" as="geometry" />
        </mxCell>
        <mxCell id="8YIkC-qQaHyYvdBdioPT-52" value="&lt;font style=&quot;font-size: 16px;&quot;&gt;Quản lý vận chuyển&lt;/font&gt;" style="shape=umlActor;verticalLabelPosition=bottom;verticalAlign=top;html=1;outlineConnect=0;" vertex="1" parent="1">
          <mxGeometry x="-80" y="840" width="30" height="60" as="geometry" />
        </mxCell>
        <mxCell id="8YIkC-qQaHyYvdBdioPT-55" style="edgeStyle=none;curved=1;rounded=0;orthogonalLoop=1;jettySize=auto;html=1;entryX=0.065;entryY=0.289;entryDx=0;entryDy=0;entryPerimeter=0;fontSize=12;startSize=8;endSize=8;" edge="1" parent="1" source="8YIkC-qQaHyYvdBdioPT-52" target="8YIkC-qQaHyYvdBdioPT-51">
          <mxGeometry relative="1" as="geometry" />
        </mxCell>
        <mxCell id="8YIkC-qQaHyYvdBdioPT-59" style="edgeStyle=none;curved=1;rounded=0;orthogonalLoop=1;jettySize=auto;html=1;fontSize=12;startSize=8;endSize=8;" edge="1" parent="1" source="8YIkC-qQaHyYvdBdioPT-58" target="8YIkC-qQaHyYvdBdioPT-60">
          <mxGeometry relative="1" as="geometry">
            <mxPoint x="110" y="790" as="targetPoint" />
          </mxGeometry>
        </mxCell>
        <mxCell id="8YIkC-qQaHyYvdBdioPT-61" style="edgeStyle=none;curved=1;rounded=0;orthogonalLoop=1;jettySize=auto;html=1;fontSize=12;startSize=8;endSize=8;" edge="1" parent="1" source="8YIkC-qQaHyYvdBdioPT-58" target="8YIkC-qQaHyYvdBdioPT-62">
          <mxGeometry relative="1" as="geometry">
            <mxPoint x="220" y="820" as="targetPoint" />
          </mxGeometry>
        </mxCell>
        <mxCell id="8YIkC-qQaHyYvdBdioPT-63" style="edgeStyle=none;curved=1;rounded=0;orthogonalLoop=1;jettySize=auto;html=1;fontSize=12;startSize=8;endSize=8;" edge="1" parent="1" source="8YIkC-qQaHyYvdBdioPT-58" target="8YIkC-qQaHyYvdBdioPT-64">
          <mxGeometry relative="1" as="geometry">
            <mxPoint x="300" y="900" as="targetPoint" />
          </mxGeometry>
        </mxCell>
        <mxCell id="8YIkC-qQaHyYvdBdioPT-58" value="&lt;font style=&quot;font-size: 15px;&quot;&gt;Quản lý đơn vận chuyển&lt;/font&gt;" style="ellipse;whiteSpace=wrap;html=1;" vertex="1" parent="1">
          <mxGeometry x="100.00000000000011" y="860" width="120" height="80" as="geometry" />
        </mxCell>
        <mxCell id="8YIkC-qQaHyYvdBdioPT-60" value="&lt;font style=&quot;font-size: 15px;&quot;&gt;tạo đơn vận chuyển&lt;/font&gt;" style="ellipse;whiteSpace=wrap;html=1;" vertex="1" parent="1">
          <mxGeometry x="220" y="750" width="120" height="80" as="geometry" />
        </mxCell>
        <mxCell id="8YIkC-qQaHyYvdBdioPT-62" value="&lt;font style=&quot;font-size: 15px;&quot;&gt;Sửa đơn vận chuyển&lt;/font&gt;" style="ellipse;whiteSpace=wrap;html=1;" vertex="1" parent="1">
          <mxGeometry x="270" y="830" width="120" height="80" as="geometry" />
        </mxCell>
        <mxCell id="8YIkC-qQaHyYvdBdioPT-64" value="&lt;font style=&quot;font-size: 15px;&quot;&gt;xóa đơn vận chuyển&lt;/font&gt;" style="ellipse;whiteSpace=wrap;html=1;" vertex="1" parent="1">
          <mxGeometry x="240" y="940" width="120" height="80" as="geometry" />
        </mxCell>
        <mxCell id="8YIkC-qQaHyYvdBdioPT-78" value="&lt;font style=&quot;font-size: 16px;&quot;&gt;xác nhận đơn hàng đã giao đến nơi&lt;/font&gt;" style="ellipse;whiteSpace=wrap;html=1;" vertex="1" parent="1">
          <mxGeometry x="280" y="110" width="120" height="80" as="geometry" />
        </mxCell>
      </root>
    </mxGraphModel>
  </diagram>
</mxfile>
